<svg width="40" height="40" viewBox="0 0 40 40" fill="none" xmlns="http://www.w3.org/2000/svg">
<g id="Linear / Essentional, UI / Box">
<path id="Vector" d="M25.963 5.63678L29.2963 7.38603C32.8825 9.26793 34.6755 10.2089 35.6712 11.8997C36.6668 13.5906 36.6668 15.6946 36.6668 19.9027V20.0976C36.6668 24.3057 36.6668 26.4097 35.6712 28.1006C34.6755 29.7914 32.8825 30.7324 29.2963 32.6143L25.963 34.3635C23.037 35.8991 21.574 36.6668 20.0002 36.6668C18.4264 36.6668 16.9634 35.8991 14.0373 34.3636L10.704 32.6143C7.11787 30.7324 5.32482 29.7914 4.32916 28.1006C3.3335 26.4097 3.3335 24.3057 3.3335 20.0976V19.9027C3.3335 15.6946 3.3335 13.5906 4.32916 11.8997C5.32482 10.2089 7.11787 9.26793 10.704 7.38603L14.0373 5.63677C16.9634 4.10125 18.4264 3.3335 20.0002 3.3335C21.574 3.3335 23.037 4.10126 25.963 5.63678Z" stroke="url(#paint0_linear_2685_7019)" stroke-width="3" stroke-linecap="round"/>
<path id="Vector_2" d="M35 12.5L28.3333 15.8333M20 20L5 12.5M20 20V35.8333M20 20C20 20 24.5711 17.7145 27.5 16.25C27.8254 16.0873 28.3333 15.8333 28.3333 15.8333M28.3333 15.8333V21.6667M28.3333 15.8333L12.5 7.5" stroke="url(#paint1_linear_2685_7019)" stroke-width="3" stroke-linecap="round"/>
</g>
<defs>
<linearGradient id="paint0_linear_2685_7019" x1="20.0002" y1="3.3335" x2="20.0002" y2="36.6668" gradientUnits="userSpaceOnUse">
<stop stop-color="#34C85A"/>
<stop offset="1" stop-color="#9850E2"/>
</linearGradient>
<linearGradient id="paint1_linear_2685_7019" x1="20" y1="7.5" x2="20" y2="35.8333" gradientUnits="userSpaceOnUse">
<stop stop-color="#34C85A"/>
<stop offset="1" stop-color="#9850E2"/>
</linearGradient>
</defs>
</svg>
