<svg width="70" height="71" viewBox="0 0 70 71" fill="none" xmlns="http://www.w3.org/2000/svg">
<g id="Group 256">
<path id="Vector" d="M70 35.7134C70 16.2656 54.33 0.5 35 0.5C15.67 0.5 0 16.2656 0 35.7134C0 53.2892 12.7989 67.8574 29.5312 70.4991V45.8923H20.6445V35.7134H29.5312V27.9555C29.5312 19.1301 34.7566 14.2553 42.7513 14.2553C46.5808 14.2553 50.5859 14.943 50.5859 14.943V23.6088H46.1727C41.825 23.6088 40.4688 26.3234 40.4688 29.1082V35.7134H50.1758L48.624 45.8923H40.4688V70.4991C57.2011 67.8574 70 53.2899 70 35.7134Z" fill="#1877F2"/>
<path id="Vector_2" d="M48.514 45.3041L50.1263 35.0597H40.0401V28.4119C40.0401 25.6092 41.4493 22.8772 45.9668 22.8772H50.5525V14.1556C50.5525 14.1556 46.3909 13.4634 42.4118 13.4634C34.1048 13.4634 28.6753 18.3696 28.6753 27.2518V35.0597H19.4414V45.3041H28.6753V70.0692C30.527 70.3523 32.4243 70.4997 34.3577 70.4997C36.2911 70.4997 38.1883 70.3523 40.0401 70.0692V45.3041H48.514Z" fill="white"/>
</g>
</svg>
