<svg width="25" height="25" viewBox="0 0 25 25" fill="none" xmlns="http://www.w3.org/2000/svg">
<g id="Vector">
<path d="M25 12.7778C25 11.75 24.9149 11 24.7307 10.2222H12.7551V14.8611H19.7845C19.6429 16.0139 18.8776 17.75 17.1768 18.9166L17.153 19.0719L20.9395 21.9466L21.2018 21.9722C23.6111 19.7916 25 16.5833 25 12.7778Z" fill="#4285F4"/>
<path d="M12.7551 25C16.1989 25 19.0901 23.8888 21.2018 21.9722L17.1768 18.9166C16.0998 19.6527 14.6542 20.1666 12.7551 20.1666C9.38211 20.1666 6.51932 17.9861 5.49881 14.9722L5.34923 14.9847L1.412 17.9708L1.36051 18.1111C3.458 22.1944 7.7664 25 12.7551 25Z" fill="#34A853"/>
<path d="M5.49881 14.9722C5.22954 14.1945 5.07371 13.3611 5.07371 12.5C5.07371 11.6388 5.22954 10.8055 5.48465 10.0278L5.47751 9.86212L1.49095 6.82803L1.36051 6.88884C0.496037 8.5833 0 10.4861 0 12.5C0 14.5139 0.496037 16.4166 1.36051 18.1111L5.49881 14.9722Z" fill="#FBBC05"/>
<path d="M12.7551 4.8333C15.1502 4.8333 16.7658 5.84718 17.687 6.69447L21.2868 3.25C19.076 1.23612 16.1989 0 12.7551 0C7.7664 0 3.458 2.80553 1.36051 6.88884L5.48465 10.0278C6.51932 7.01388 9.38211 4.8333 12.7551 4.8333Z" fill="#EB4335"/>
</g>
</svg>
