<svg width="85" height="85" viewBox="0 0 85 85" fill="none" xmlns="http://www.w3.org/2000/svg">
<path fill-rule="evenodd" clip-rule="evenodd" d="M20.6757 42.5001C20.6757 30.4467 30.4467 20.6757 42.5001 20.6757C54.5533 20.6757 64.3243 30.4467 64.3243 42.5001C64.3243 54.5533 54.5533 64.3243 42.5001 64.3243C30.4467 64.3243 20.6757 54.5533 20.6757 42.5001ZM42.5001 56.6667C34.6759 56.6667 28.3333 50.3241 28.3333 42.5001C28.3333 34.6759 34.6759 28.3333 42.5001 28.3333C50.3241 28.3333 56.6667 34.6759 56.6667 42.5001C56.6667 50.3241 50.3241 56.6667 42.5001 56.6667Z" fill="url(#paint0_linear_2301_4935)"/>
<path fill-rule="evenodd" clip-rule="evenodd" d="M20.6757 42.5001C20.6757 30.4467 30.4467 20.6757 42.5001 20.6757C54.5533 20.6757 64.3243 30.4467 64.3243 42.5001C64.3243 54.5533 54.5533 64.3243 42.5001 64.3243C30.4467 64.3243 20.6757 54.5533 20.6757 42.5001ZM42.5001 56.6667C34.6759 56.6667 28.3333 50.3241 28.3333 42.5001C28.3333 34.6759 34.6759 28.3333 42.5001 28.3333C50.3241 28.3333 56.6667 34.6759 56.6667 42.5001C56.6667 50.3241 50.3241 56.6667 42.5001 56.6667Z" fill="url(#paint1_radial_2301_4935)"/>
<path d="M65.1866 24.9134C68.0032 24.9134 70.2866 22.6301 70.2866 19.8134C70.2866 16.9968 68.0032 14.7134 65.1866 14.7134C62.37 14.7134 60.0866 16.9968 60.0866 19.8134C60.0866 22.6301 62.37 24.9134 65.1866 24.9134Z" fill="url(#paint2_linear_2301_4935)"/>
<path d="M65.1866 24.9134C68.0032 24.9134 70.2866 22.6301 70.2866 19.8134C70.2866 16.9968 68.0032 14.7134 65.1866 14.7134C62.37 14.7134 60.0866 16.9968 60.0866 19.8134C60.0866 22.6301 62.37 24.9134 65.1866 24.9134Z" fill="url(#paint3_radial_2301_4935)"/>
<path fill-rule="evenodd" clip-rule="evenodd" d="M42.5001 0C30.9577 0 29.5104 0.0489242 24.9773 0.255755C20.4537 0.46208 17.3642 1.18059 14.6609 2.23128C11.8661 3.31723 9.49601 4.77044 7.13314 7.13314C4.77044 9.49601 3.31723 11.8661 2.23128 14.6609C1.18059 17.3642 0.46208 20.4537 0.255755 24.9773C0.0489242 29.5104 0 30.9577 0 42.5001C0 54.0423 0.0489242 55.4896 0.255755 60.0227C0.46208 64.5463 1.18059 67.6358 2.23128 70.3391C3.31723 73.1339 4.77044 75.504 7.13314 77.8669C9.49601 80.2296 11.8661 81.6828 14.6609 82.7689C17.3642 83.8194 20.4537 84.5379 24.9773 84.7442C29.5104 84.9511 30.9577 85 42.5001 85C54.0423 85 55.4896 84.9511 60.0227 84.7442C64.5463 84.5379 67.6358 83.8194 70.3391 82.7689C73.1339 81.6828 75.504 80.2296 77.8669 77.8669C80.2296 75.504 81.6828 73.1339 82.7689 70.3391C83.8194 67.6358 84.5379 64.5463 84.7442 60.0227C84.9511 55.4896 85 54.0423 85 42.5001C85 30.9577 84.9511 29.5104 84.7442 24.9773C84.5379 20.4537 83.8194 17.3642 82.7689 14.6609C81.6828 11.8661 80.2296 9.49601 77.8669 7.13314C75.504 4.77044 73.1339 3.31723 70.3391 2.23128C67.6358 1.18059 64.5463 0.46208 60.0227 0.255755C55.4896 0.0489242 54.0423 0 42.5001 0ZM42.5001 7.65764C53.848 7.65764 55.1922 7.701 59.6737 7.90547C63.8174 8.09442 66.0677 8.78678 67.5653 9.36881C69.5491 10.1398 70.9648 11.0607 72.452 12.548C73.9393 14.0352 74.8602 15.4509 75.6312 17.4347C76.2132 18.9323 76.9056 21.1826 77.0945 25.3264C77.299 29.8078 77.3424 31.152 77.3424 42.5001C77.3424 53.848 77.299 55.1922 77.0945 59.6736C76.9056 63.8174 76.2132 66.0677 75.6312 67.5653C74.8602 69.5491 73.9393 70.9648 72.452 72.452C70.9648 73.9393 69.5491 74.8602 67.5653 75.6312C66.0677 76.2132 63.8174 76.9056 59.6737 77.0945C55.1929 77.299 53.8488 77.3424 42.5001 77.3424C31.1512 77.3424 29.8073 77.299 25.3264 77.0945C21.1827 76.9056 18.9323 76.2132 17.4347 75.6312C15.4509 74.8602 14.0352 73.9393 12.548 72.452C11.0609 70.9648 10.1398 69.5491 9.36882 67.5653C8.78679 66.0677 8.09443 63.8174 7.90548 59.6736C7.70101 55.1922 7.65765 53.848 7.65765 42.5001C7.65765 31.152 7.70101 29.8078 7.90548 25.3264C8.09443 21.1826 8.78679 18.9323 9.36882 17.4347C10.1398 15.4509 11.0608 14.0352 12.548 12.548C14.0352 11.0607 15.4509 10.1398 17.4347 9.36881C18.9323 8.78678 21.1827 8.09442 25.3264 7.90547C29.8078 7.701 31.1521 7.65764 42.5001 7.65764Z" fill="url(#paint4_linear_2301_4935)"/>
<path fill-rule="evenodd" clip-rule="evenodd" d="M42.5001 0C30.9577 0 29.5104 0.0489242 24.9773 0.255755C20.4537 0.46208 17.3642 1.18059 14.6609 2.23128C11.8661 3.31723 9.49601 4.77044 7.13314 7.13314C4.77044 9.49601 3.31723 11.8661 2.23128 14.6609C1.18059 17.3642 0.46208 20.4537 0.255755 24.9773C0.0489242 29.5104 0 30.9577 0 42.5001C0 54.0423 0.0489242 55.4896 0.255755 60.0227C0.46208 64.5463 1.18059 67.6358 2.23128 70.3391C3.31723 73.1339 4.77044 75.504 7.13314 77.8669C9.49601 80.2296 11.8661 81.6828 14.6609 82.7689C17.3642 83.8194 20.4537 84.5379 24.9773 84.7442C29.5104 84.9511 30.9577 85 42.5001 85C54.0423 85 55.4896 84.9511 60.0227 84.7442C64.5463 84.5379 67.6358 83.8194 70.3391 82.7689C73.1339 81.6828 75.504 80.2296 77.8669 77.8669C80.2296 75.504 81.6828 73.1339 82.7689 70.3391C83.8194 67.6358 84.5379 64.5463 84.7442 60.0227C84.9511 55.4896 85 54.0423 85 42.5001C85 30.9577 84.9511 29.5104 84.7442 24.9773C84.5379 20.4537 83.8194 17.3642 82.7689 14.6609C81.6828 11.8661 80.2296 9.49601 77.8669 7.13314C75.504 4.77044 73.1339 3.31723 70.3391 2.23128C67.6358 1.18059 64.5463 0.46208 60.0227 0.255755C55.4896 0.0489242 54.0423 0 42.5001 0ZM42.5001 7.65764C53.848 7.65764 55.1922 7.701 59.6737 7.90547C63.8174 8.09442 66.0677 8.78678 67.5653 9.36881C69.5491 10.1398 70.9648 11.0607 72.452 12.548C73.9393 14.0352 74.8602 15.4509 75.6312 17.4347C76.2132 18.9323 76.9056 21.1826 77.0945 25.3264C77.299 29.8078 77.3424 31.152 77.3424 42.5001C77.3424 53.848 77.299 55.1922 77.0945 59.6736C76.9056 63.8174 76.2132 66.0677 75.6312 67.5653C74.8602 69.5491 73.9393 70.9648 72.452 72.452C70.9648 73.9393 69.5491 74.8602 67.5653 75.6312C66.0677 76.2132 63.8174 76.9056 59.6737 77.0945C55.1929 77.299 53.8488 77.3424 42.5001 77.3424C31.1512 77.3424 29.8073 77.299 25.3264 77.0945C21.1827 76.9056 18.9323 76.2132 17.4347 75.6312C15.4509 74.8602 14.0352 73.9393 12.548 72.452C11.0609 70.9648 10.1398 69.5491 9.36882 67.5653C8.78679 66.0677 8.09443 63.8174 7.90548 59.6736C7.70101 55.1922 7.65765 53.848 7.65765 42.5001C7.65765 31.152 7.70101 29.8078 7.90548 25.3264C8.09443 21.1826 8.78679 18.9323 9.36882 17.4347C10.1398 15.4509 11.0608 14.0352 12.548 12.548C14.0352 11.0607 15.4509 10.1398 17.4347 9.36881C18.9323 8.78678 21.1827 8.09442 25.3264 7.90547C29.8078 7.701 31.1521 7.65764 42.5001 7.65764Z" fill="url(#paint5_radial_2301_4935)"/>
<defs>
<linearGradient id="paint0_linear_2301_4935" x1="4.95948" y1="4.4687" x2="31.7592" y2="108.133" gradientUnits="userSpaceOnUse">
<stop stop-color="#4E60D3"/>
<stop offset="0.142763" stop-color="#913BAF"/>
<stop offset="0.761458" stop-color="#D52D88"/>
<stop offset="1" stop-color="#F26D4F"/>
</linearGradient>
<radialGradient id="paint1_radial_2301_4935" cx="0" cy="0" r="1" gradientUnits="userSpaceOnUse" gradientTransform="translate(25.7332 85) rotate(32.1601) scale(79.3854 57.1312)">
<stop stop-color="#FED276"/>
<stop offset="0.17024" stop-color="#FDBD61" stop-opacity="0.975006"/>
<stop offset="0.454081" stop-color="#F6804D"/>
<stop offset="1" stop-color="#E83D5C" stop-opacity="0.01"/>
</radialGradient>
<linearGradient id="paint2_linear_2301_4935" x1="4.95948" y1="4.4687" x2="31.7592" y2="108.133" gradientUnits="userSpaceOnUse">
<stop stop-color="#4E60D3"/>
<stop offset="0.142763" stop-color="#913BAF"/>
<stop offset="0.761458" stop-color="#D52D88"/>
<stop offset="1" stop-color="#F26D4F"/>
</linearGradient>
<radialGradient id="paint3_radial_2301_4935" cx="0" cy="0" r="1" gradientUnits="userSpaceOnUse" gradientTransform="translate(25.7332 85) rotate(32.1601) scale(79.3854 57.1312)">
<stop stop-color="#FED276"/>
<stop offset="0.17024" stop-color="#FDBD61" stop-opacity="0.975006"/>
<stop offset="0.454081" stop-color="#F6804D"/>
<stop offset="1" stop-color="#E83D5C" stop-opacity="0.01"/>
</radialGradient>
<linearGradient id="paint4_linear_2301_4935" x1="4.95948" y1="4.4687" x2="31.7592" y2="108.133" gradientUnits="userSpaceOnUse">
<stop stop-color="#4E60D3"/>
<stop offset="0.142763" stop-color="#913BAF"/>
<stop offset="0.761458" stop-color="#D52D88"/>
<stop offset="1" stop-color="#F26D4F"/>
</linearGradient>
<radialGradient id="paint5_radial_2301_4935" cx="0" cy="0" r="1" gradientUnits="userSpaceOnUse" gradientTransform="translate(25.7332 85) rotate(32.1601) scale(79.3854 57.1312)">
<stop stop-color="#FED276"/>
<stop offset="0.17024" stop-color="#FDBD61" stop-opacity="0.975006"/>
<stop offset="0.454081" stop-color="#F6804D"/>
<stop offset="1" stop-color="#E83D5C" stop-opacity="0.01"/>
</radialGradient>
</defs>
</svg>