<svg width="22" height="24" viewBox="0 0 22 24" fill="none" xmlns="http://www.w3.org/2000/svg">
<g clip-path="url(#clip0_34_135)">
<path d="M15.7029 8.64166C17.2486 9.74607 19.1423 10.3959 21.1875 10.3959V6.46237C20.8004 6.46253 20.4144 6.42214 20.0357 6.34188V9.43813C17.9907 9.43813 16.0972 8.78839 14.5511 7.68406V15.7113C14.5511 19.727 11.2941 22.9821 7.27664 22.9821C5.77763 22.9821 4.38431 22.5291 3.22693 21.7523C4.54792 23.1023 6.39013 23.9398 8.42814 23.9398C12.4459 23.9398 15.703 20.6847 15.703 16.6688V8.64166H15.7029ZM17.1238 4.67322C16.3338 3.81062 15.8151 2.69586 15.7029 1.46342V0.95752H14.6114C14.8861 2.52389 15.8234 3.8621 17.1238 4.67322ZM5.76795 18.6708C5.32655 18.0925 5.08796 17.3849 5.08908 16.6573C5.08908 14.8207 6.57882 13.3316 8.4168 13.3316C8.75928 13.3314 9.09974 13.384 9.42621 13.4874V9.46593C9.04469 9.41371 8.6597 9.39145 8.27487 9.39964V12.5297C7.94824 12.4263 7.60761 12.3737 7.26497 12.374C5.42707 12.374 3.93741 13.863 3.93741 15.6998C3.93741 16.9986 4.68199 18.1231 5.76795 18.6708Z" fill="#FF004F"/>
<path d="M14.5511 7.68397C16.0973 8.78831 17.9905 9.43804 20.0357 9.43804V6.34179C18.8941 6.09873 17.8835 5.50254 17.1237 4.67322C15.8232 3.86202 14.8861 2.52381 14.6113 0.95752H11.7443V16.6687C11.7378 18.5003 10.2506 19.9833 8.4166 19.9833C7.33594 19.9833 6.37578 19.4685 5.76775 18.6708C4.68196 18.1231 3.93729 16.9985 3.93729 15.6999C3.93729 13.8632 5.42695 12.3741 7.26485 12.3741C7.61699 12.3741 7.95638 12.4289 8.27476 12.5298V9.39973C4.32783 9.48124 1.15363 12.7045 1.15363 16.6687C1.15363 18.6477 1.94405 20.4416 3.22698 21.7524C4.38436 22.5291 5.7776 22.9822 7.27669 22.9822C11.2942 22.9822 14.5512 19.7269 14.5512 15.7113L14.5511 7.68397Z" fill="black"/>
<path d="M20.0357 6.34179V5.50477C19.0063 5.50627 17.9972 5.21813 17.1237 4.6733C17.8969 5.51927 18.9149 6.10265 20.0357 6.34196M14.6113 0.957517C14.5851 0.807854 14.565 0.657193 14.551 0.505903V0H10.5923V15.7113C10.5861 17.5428 9.09889 19.0258 7.26479 19.0258C6.74484 19.0266 6.23199 18.905 5.76768 18.671C6.37571 19.4686 7.33588 19.9833 8.41654 19.9833C10.2505 19.9833 11.7378 18.5004 11.7443 16.6688V0.9576L14.6113 0.957517ZM8.27494 9.39972V8.5085C7.94414 8.46333 7.61066 8.44072 7.27679 8.4408C3.25886 8.4408 0.00189209 11.696 0.00189209 15.7113C0.00189209 18.2287 1.28192 20.4473 3.22708 21.7524C1.94415 20.4416 1.15373 18.6476 1.15373 16.6687C1.15373 12.7046 4.32785 9.48124 8.27494 9.39972Z" fill="#00F2EA"/>
</g>
<defs>
<clipPath id="clip0_34_135">
<rect width="21.19" height="24" fill="white"/>
</clipPath>
</defs>
</svg>
