<svg width="70" height="71" viewBox="0 0 70 71" fill="none" xmlns="http://www.w3.org/2000/svg">
<g id="Group 38215">
<path id="Vector" fill-rule="evenodd" clip-rule="evenodd" d="M35.8142 4.7644C19.0887 4.7644 5.48828 18.2622 5.48828 34.8556C5.48828 41.4357 7.63276 47.5366 11.2639 52.498L7.47626 63.6703L19.1279 59.9682C23.9156 63.1104 29.6497 64.9419 35.8142 64.9419C52.5323 64.9419 66.1377 51.4441 66.1377 34.8531C66.1377 18.2622 52.5323 4.7644 35.8142 4.7644Z" fill="url(#paint0_linear_1053_4371)"/>
<path id="Vector_2" fill-rule="evenodd" clip-rule="evenodd" d="M70 34.5989C70 53.4273 54.6145 68.6954 35.637 68.6954C29.6095 68.6954 23.9487 67.1574 19.0264 64.4529L0 70.5L6.20114 52.2071C3.07123 47.0672 1.27153 41.0421 1.27153 34.6014C1.27153 15.7657 16.657 0.5 35.637 0.5C54.617 0.5 70 15.7657 70 34.5989ZM35.637 5.93089C19.7013 5.93089 6.74398 18.7904 6.74398 34.5989C6.74398 40.8685 8.78576 46.6784 12.2458 51.4075L8.63905 62.0517L19.7405 58.5256C24.3008 61.5186 29.766 63.2645 35.637 63.2645C51.5653 63.2645 64.5275 50.405 64.5275 34.5989C64.5275 18.7929 51.5653 5.93089 35.637 5.93089ZM52.9884 42.4531C52.7757 42.1034 52.2133 41.8955 51.3746 41.4774C50.531 41.0593 46.3887 39.037 45.616 38.7583C44.8458 38.4795 44.2785 38.3402 43.721 39.1764C43.1586 40.0127 41.5447 41.8955 41.0508 42.4531C40.5617 43.013 40.0702 43.079 39.229 42.6609C38.3854 42.2428 35.6688 41.3576 32.4533 38.5138C29.9518 36.2959 28.2597 33.5621 27.7657 32.7259C27.2767 31.8896 27.7168 31.4397 28.135 31.0215C28.514 30.645 28.9786 30.0459 29.3992 29.5593C29.8222 29.0702 29.9616 28.7181 30.2428 28.1606C30.524 27.6031 30.3846 27.1165 30.1719 26.6983C29.964 26.2802 28.2768 22.1673 27.575 20.4923C26.8781 18.8222 26.1739 18.8833 25.68 18.8833C25.186 18.8833 24.2813 19.0301 24.2813 19.0301C24.2813 19.0301 22.5916 19.2379 21.8214 20.0742C21.0511 20.9105 18.8748 22.9327 18.8748 27.0431C18.8748 31.1536 21.8898 35.132 22.3129 35.6871C22.7359 36.247 28.1374 44.9619 36.7031 48.307C45.2664 51.6521 45.2664 50.537 46.8118 50.3952C48.3547 50.2583 51.7952 48.3754 52.4969 46.4217C53.1987 44.4704 53.1987 42.7954 52.9909 42.4482L52.9884 42.4531Z" fill="white"/>
</g>
<defs>
<linearGradient id="paint0_linear_1053_4371" x1="35.8142" y1="4.7644" x2="35.8142" y2="64.9443" gradientUnits="userSpaceOnUse">
<stop stop-color="#00AC4E"/>
<stop offset="1" stop-color="#008948"/>
</linearGradient>
</defs>
</svg>
