<svg width="150" height="148" viewBox="0 0 150 148" fill="none" xmlns="http://www.w3.org/2000/svg">
<path fill-rule="evenodd" clip-rule="evenodd" d="M17.1875 74C17.1875 59.5256 29.0799 47.7917 43.75 47.7917C49.7363 47.7917 55.2479 49.74 59.6874 53.031C61.7571 54.5653 64.6956 54.1536 66.2507 52.1115C67.8057 50.0693 67.3885 47.17 65.3187 45.6357C59.3114 41.1824 51.8365 38.5417 43.75 38.5417C23.9023 38.5417 7.8125 54.4169 7.8125 74C7.8125 93.5831 23.9023 109.458 43.75 109.458C48.6489 109.458 52.8975 108.578 56.6488 106.775C60.396 104.973 63.392 102.373 65.9565 99.2864C70.0793 94.3244 73.429 87.6055 77.0579 80.3266C77.4115 79.6174 78.2945 77.8438 79.1747 76.0786C80.3177 73.7868 79.3729 71.0056 77.0574 69.8633C74.7418 68.721 71.9316 69.6496 70.7875 71.941C69.8445 73.8296 68.8843 75.7558 68.5012 76.522C64.8515 83.8206 62.0817 89.3597 58.7064 93.422C56.7877 95.7313 54.8077 97.3704 52.5423 98.4595C50.281 99.5467 47.4806 100.208 43.75 100.208C29.0799 100.208 17.1875 88.4745 17.1875 74Z" fill="#4D4D4D"/>
<path opacity="0.5" d="M79.1822 76.0635C80.3135 73.7745 79.3678 71.0031 77.0574 69.8633C74.8561 68.7773 72.2077 69.563 70.9688 71.6119C71.6392 70.2858 72.2948 68.9707 72.9416 67.6735C76.5705 60.3945 79.9202 53.6756 84.043 48.7137C86.6075 45.6271 89.6036 43.0266 93.3507 41.2251C97.102 39.4217 101.351 38.5417 106.25 38.5417C126.097 38.5417 142.187 54.4169 142.187 74C142.187 93.5831 126.097 109.458 106.25 109.458C98.1632 109.458 90.6904 106.816 84.6841 102.365C82.6143 100.83 82.1968 97.9311 83.7517 95.8889C85.3066 93.8466 88.245 93.4347 90.3149 94.9688C94.7548 98.2596 100.265 100.208 106.25 100.208C120.92 100.208 132.812 88.4745 132.812 74C132.812 59.5256 120.92 47.7917 106.25 47.7917C102.519 47.7917 99.7185 48.4534 97.4572 49.5405C95.1918 50.6297 93.2118 52.2687 91.2931 54.578C87.9179 58.6403 85.148 64.1794 81.4983 71.478C80.7688 72.9369 80.0038 74.4666 79.1921 76.0684L79.1822 76.0635Z" fill="#4D4D4D"/>
</svg>
