<svg width="20" height="20" viewBox="0 0 20 20" fill="none" xmlns="http://www.w3.org/2000/svg">
<path fill-rule="evenodd" clip-rule="evenodd" d="M10.0412 1.04169H9.95894C9.4049 1.04166 8.92749 1.04163 8.54521 1.09303C8.13551 1.14811 7.74279 1.27233 7.42426 1.59087C7.10572 1.9094 6.9815 2.30212 6.92642 2.71182C6.87502 3.09411 6.87505 3.5715 6.87508 4.12555L6.87508 6.14838C6.67959 6.07929 6.46923 6.04169 6.25008 6.04169H3.75008C2.71455 6.04169 1.87508 6.88116 1.87508 7.91669V17.7084H1.66675C1.32157 17.7084 1.04175 17.9882 1.04175 18.3334C1.04175 18.6785 1.32157 18.9584 1.66675 18.9584H18.3334C18.6786 18.9584 18.9584 18.6785 18.9584 18.3334C18.9584 17.9882 18.6786 17.7084 18.3334 17.7084H18.1251V12.0834C18.1251 11.0478 17.2856 10.2084 16.2501 10.2084H13.7501C13.5309 10.2084 13.3206 10.246 13.1251 10.315L13.1251 4.12555C13.1251 3.5715 13.1251 3.09411 13.0737 2.71182C13.0187 2.30212 12.8944 1.90941 12.5759 1.59087C12.2574 1.27233 11.8646 1.14811 11.455 1.09303C11.0727 1.04163 10.5953 1.04166 10.0412 1.04169ZM16.8751 17.7084V12.0834C16.8751 11.7382 16.5953 11.4584 16.2501 11.4584H13.7501C13.4049 11.4584 13.1251 11.7382 13.1251 12.0834V17.7084H16.8751ZM11.8751 17.7084V4.16669C11.8751 3.55977 11.8738 3.16745 11.8349 2.87838C11.7984 2.60729 11.7396 2.52233 11.692 2.47475C11.6444 2.42717 11.5595 2.36833 11.2884 2.33188C10.9993 2.29302 10.607 2.29169 10.0001 2.29169C9.39316 2.29169 9.00084 2.29302 8.71177 2.33188C8.44068 2.36833 8.35572 2.42717 8.30814 2.47475C8.26056 2.52233 8.20172 2.60729 8.16527 2.87838C8.12641 3.16745 8.12508 3.55977 8.12508 4.16669V17.7084H11.8751ZM6.87508 17.7084V7.91669C6.87508 7.57151 6.59526 7.29169 6.25008 7.29169H3.75008C3.4049 7.29169 3.12508 7.57151 3.12508 7.91669V17.7084H6.87508Z" fill="url(#paint0_linear_368_8372)"/>
<defs>
<linearGradient id="paint0_linear_368_8372" x1="1.04175" y1="10" x2="18.9584" y2="10" gradientUnits="userSpaceOnUse">
<stop stop-color="#34C85A"/>
<stop offset="1" stop-color="#7B32FF"/>
</linearGradient>
</defs>
</svg>
