<svg width="20" height="20" viewBox="0 0 20 20" fill="none" xmlns="http://www.w3.org/2000/svg">
<g clip-path="url(#clip0_368_8390)">
<path d="M5.83325 8.33337C5.83325 7.15486 5.83325 6.56561 6.19937 6.19949C6.56549 5.83337 7.15474 5.83337 8.33325 5.83337H11.6666C12.8451 5.83337 13.4344 5.83337 13.8005 6.19949C14.1666 6.56561 14.1666 7.15486 14.1666 8.33337V11.6667C14.1666 12.8452 14.1666 13.4345 13.8005 13.8006C13.4344 14.1667 12.8451 14.1667 11.6666 14.1667H8.33325C7.15474 14.1667 6.56549 14.1667 6.19937 13.8006C5.83325 13.4345 5.83325 12.8452 5.83325 11.6667V8.33337Z" stroke="url(#paint0_linear_368_8390)" stroke-width="1.5"/>
<path d="M10.3572 8.33337L9.16675 10H10.8334L9.64294 11.6667" stroke="url(#paint1_linear_368_8390)" stroke-width="1.5" stroke-linecap="round" stroke-linejoin="round"/>
<path d="M3.33325 10C3.33325 6.85734 3.33325 5.286 4.30956 4.30968C5.28587 3.33337 6.85722 3.33337 9.99992 3.33337C13.1426 3.33337 14.714 3.33337 15.6903 4.30968C16.6666 5.286 16.6666 6.85734 16.6666 10C16.6666 13.1427 16.6666 14.7141 15.6903 15.6904C14.714 16.6667 13.1426 16.6667 9.99992 16.6667C6.85722 16.6667 5.28587 16.6667 4.30956 15.6904C3.33325 14.7141 3.33325 13.1427 3.33325 10Z" stroke="url(#paint2_linear_368_8390)" stroke-width="1.5"/>
<path d="M3.33325 10H1.66659" stroke="url(#paint3_linear_368_8390)" stroke-width="1.5" stroke-linecap="round"/>
<path d="M18.3333 10H16.6666" stroke="url(#paint4_linear_368_8390)" stroke-width="1.5" stroke-linecap="round"/>
<path d="M3.33325 7.5L1.66659 7.5" stroke="url(#paint5_linear_368_8390)" stroke-width="1.5" stroke-linecap="round"/>
<path d="M18.3333 7.5H16.6666" stroke="url(#paint6_linear_368_8390)" stroke-width="1.5" stroke-linecap="round"/>
<path d="M3.33325 12.5H1.66659" stroke="url(#paint7_linear_368_8390)" stroke-width="1.5" stroke-linecap="round"/>
<path d="M18.3333 12.5H16.6666" stroke="url(#paint8_linear_368_8390)" stroke-width="1.5" stroke-linecap="round"/>
<path d="M10 16.6666L10 18.3333" stroke="url(#paint9_linear_368_8390)" stroke-width="1.5" stroke-linecap="round"/>
<path d="M10 1.66663L10 3.33329" stroke="url(#paint10_linear_368_8390)" stroke-width="1.5" stroke-linecap="round"/>
<path d="M7.5 16.6666L7.5 18.3333" stroke="url(#paint11_linear_368_8390)" stroke-width="1.5" stroke-linecap="round"/>
<path d="M7.5 1.66663L7.5 3.33329" stroke="url(#paint12_linear_368_8390)" stroke-width="1.5" stroke-linecap="round"/>
<path d="M12.5 16.6666L12.5 18.3333" stroke="url(#paint13_linear_368_8390)" stroke-width="1.5" stroke-linecap="round"/>
<path d="M12.5 1.66663L12.5 3.33329" stroke="url(#paint14_linear_368_8390)" stroke-width="1.5" stroke-linecap="round"/>
</g>
<defs>
<linearGradient id="paint0_linear_368_8390" x1="9.99992" y1="5.83337" x2="9.99992" y2="14.1667" gradientUnits="userSpaceOnUse">
<stop stop-color="#34C85A"/>
<stop offset="1" stop-color="#7B32FF"/>
</linearGradient>
<linearGradient id="paint1_linear_368_8390" x1="10.0001" y1="8.33337" x2="10.0001" y2="11.6667" gradientUnits="userSpaceOnUse">
<stop stop-color="#34C85A"/>
<stop offset="1" stop-color="#7B32FF"/>
</linearGradient>
<linearGradient id="paint2_linear_368_8390" x1="9.99992" y1="3.33337" x2="9.99992" y2="16.6667" gradientUnits="userSpaceOnUse">
<stop stop-color="#34C85A"/>
<stop offset="1" stop-color="#7B32FF"/>
</linearGradient>
<linearGradient id="paint3_linear_368_8390" x1="2.49992" y1="10" x2="2.49992" y2="9" gradientUnits="userSpaceOnUse">
<stop stop-color="#34C85A"/>
<stop offset="1" stop-color="#7B32FF"/>
</linearGradient>
<linearGradient id="paint4_linear_368_8390" x1="17.4999" y1="10" x2="17.4999" y2="9" gradientUnits="userSpaceOnUse">
<stop stop-color="#34C85A"/>
<stop offset="1" stop-color="#7B32FF"/>
</linearGradient>
<linearGradient id="paint5_linear_368_8390" x1="2.49992" y1="7.5" x2="2.49992" y2="6.5" gradientUnits="userSpaceOnUse">
<stop stop-color="#34C85A"/>
<stop offset="1" stop-color="#7B32FF"/>
</linearGradient>
<linearGradient id="paint6_linear_368_8390" x1="17.4999" y1="7.5" x2="17.4999" y2="6.5" gradientUnits="userSpaceOnUse">
<stop stop-color="#34C85A"/>
<stop offset="1" stop-color="#7B32FF"/>
</linearGradient>
<linearGradient id="paint7_linear_368_8390" x1="2.49992" y1="12.5" x2="2.49992" y2="11.5" gradientUnits="userSpaceOnUse">
<stop stop-color="#34C85A"/>
<stop offset="1" stop-color="#7B32FF"/>
</linearGradient>
<linearGradient id="paint8_linear_368_8390" x1="17.4999" y1="12.5" x2="17.4999" y2="11.5" gradientUnits="userSpaceOnUse">
<stop stop-color="#34C85A"/>
<stop offset="1" stop-color="#7B32FF"/>
</linearGradient>
<linearGradient id="paint9_linear_368_8390" x1="10" y1="17.5" x2="9" y2="17.5" gradientUnits="userSpaceOnUse">
<stop stop-color="#34C85A"/>
<stop offset="1" stop-color="#7B32FF"/>
</linearGradient>
<linearGradient id="paint10_linear_368_8390" x1="10" y1="2.49996" x2="9" y2="2.49996" gradientUnits="userSpaceOnUse">
<stop stop-color="#34C85A"/>
<stop offset="1" stop-color="#7B32FF"/>
</linearGradient>
<linearGradient id="paint11_linear_368_8390" x1="7.5" y1="17.5" x2="6.5" y2="17.5" gradientUnits="userSpaceOnUse">
<stop stop-color="#34C85A"/>
<stop offset="1" stop-color="#7B32FF"/>
</linearGradient>
<linearGradient id="paint12_linear_368_8390" x1="7.5" y1="2.49996" x2="6.5" y2="2.49996" gradientUnits="userSpaceOnUse">
<stop stop-color="#34C85A"/>
<stop offset="1" stop-color="#7B32FF"/>
</linearGradient>
<linearGradient id="paint13_linear_368_8390" x1="12.5" y1="17.5" x2="11.5" y2="17.5" gradientUnits="userSpaceOnUse">
<stop stop-color="#34C85A"/>
<stop offset="1" stop-color="#7B32FF"/>
</linearGradient>
<linearGradient id="paint14_linear_368_8390" x1="12.5" y1="2.49996" x2="11.5" y2="2.49996" gradientUnits="userSpaceOnUse">
<stop stop-color="#34C85A"/>
<stop offset="1" stop-color="#7B32FF"/>
</linearGradient>
<clipPath id="clip0_368_8390">
<rect width="20" height="20" fill="white"/>
</clipPath>
</defs>
</svg>
