<svg width="20" height="20" viewBox="0 0 20 20" fill="none" xmlns="http://www.w3.org/2000/svg">
<path fill-rule="evenodd" clip-rule="evenodd" d="M8.71728 1.04169H11.2829C12.619 1.04168 13.6665 1.04168 14.5033 1.12124C15.3563 1.20234 16.0547 1.37049 16.6704 1.74779C17.3151 2.14289 17.8572 2.68497 18.2523 3.32971C18.6296 3.9454 18.7978 4.64382 18.8789 5.49678C18.9584 6.3336 18.9584 7.38106 18.9584 8.71721V9.60656C18.9584 10.5576 18.9584 11.3033 18.9173 11.9057C18.8755 12.5186 18.7891 13.0287 18.5937 13.5004C18.1073 14.6745 17.1745 15.6073 16.0004 16.0936C15.3296 16.3715 14.5656 16.4331 13.5195 16.4511C13.1536 16.4574 12.9218 16.4621 12.7451 16.4816C12.5801 16.4999 12.5161 16.5267 12.4786 16.5485C12.4391 16.5715 12.3853 16.6133 12.2918 16.7416C12.1907 16.8803 12.0764 17.0721 11.8952 17.3782L11.4435 18.1414C10.7988 19.2306 9.2013 19.2306 8.55666 18.1414L8.10491 17.3782C7.9237 17.0721 7.80943 16.8803 7.70829 16.7416C7.61485 16.6133 7.56102 16.5715 7.52152 16.5485C7.48407 16.5267 7.42007 16.4999 7.25498 16.4816C7.07831 16.4621 6.84654 16.4574 6.48063 16.4511C5.43456 16.4331 4.67054 16.3715 3.99972 16.0936C2.82563 15.6073 1.89282 14.6745 1.40649 13.5004C1.21111 13.0287 1.12466 12.5186 1.08284 11.9057C1.04174 11.3033 1.04175 10.5576 1.04175 9.60655L1.04175 8.71722C1.04174 7.38107 1.04174 6.3336 1.1213 5.49678C1.2024 4.64382 1.37056 3.9454 1.74785 3.32971C2.14295 2.68497 2.68503 2.14289 3.32978 1.74779C3.94546 1.37049 4.64388 1.20234 5.49684 1.12124C6.33366 1.04168 7.38113 1.04168 8.71728 1.04169ZM5.61515 2.36563C4.85369 2.43803 4.36917 2.57688 3.9829 2.81359C3.50635 3.10562 3.10568 3.50629 2.81365 3.98284C2.57694 4.36911 2.43809 4.85363 2.36569 5.61509C2.29241 6.38585 2.29175 7.37399 2.29175 8.75002V9.58335C2.29175 10.5626 2.29209 11.2658 2.32994 11.8206C2.36742 12.3699 2.43956 12.728 2.56134 13.022C2.9208 13.8898 3.61027 14.5793 4.47808 14.9388C4.90778 15.1167 5.45597 15.1833 6.50216 15.2013L6.52868 15.2018C6.86035 15.2075 7.15099 15.2125 7.39256 15.2392C7.65213 15.268 7.906 15.3261 8.14997 15.468C8.39187 15.6087 8.56636 15.7966 8.71846 16.0053C8.85902 16.1982 9.00346 16.4422 9.16705 16.7186L9.63235 17.5047C9.79298 17.7761 10.2071 17.7761 10.3678 17.5047L10.8331 16.7186C10.9967 16.4422 11.1411 16.1982 11.2817 16.0053C11.4338 15.7966 11.6083 15.6087 11.8502 15.468C12.0941 15.3261 12.348 15.268 12.6076 15.2392C12.8491 15.2125 13.1398 15.2075 13.4714 15.2018L13.498 15.2013C14.5442 15.1833 15.0924 15.1167 15.5221 14.9388C16.3899 14.5793 17.0794 13.8898 17.4388 13.022C17.5606 12.728 17.6327 12.3699 17.6702 11.8206C17.7081 11.2658 17.7084 10.5626 17.7084 9.58335V8.75002C17.7084 7.37399 17.7078 6.38585 17.6345 5.61509C17.5621 4.85363 17.4232 4.36911 17.1865 3.98284C16.8945 3.50629 16.4938 3.10562 16.0173 2.81359C15.631 2.57688 15.1465 2.43803 14.385 2.36563C13.6142 2.29235 12.6261 2.29169 11.2501 2.29169H8.75008C7.37405 2.29169 6.38592 2.29235 5.61515 2.36563Z" fill="url(#paint0_linear_368_8332)"/>
<path d="M7.50008 9.16669C7.50008 9.62692 7.12699 10 6.66675 10C6.20651 10 5.83341 9.62692 5.83341 9.16669C5.83341 8.70645 6.20651 8.33335 6.66675 8.33335C7.12699 8.33335 7.50008 8.70645 7.50008 9.16669Z" fill="url(#paint1_linear_368_8332)"/>
<path d="M10.8334 9.16669C10.8334 9.62692 10.4603 10 10.0001 10C9.53984 10 9.16675 9.62692 9.16675 9.16669C9.16675 8.70645 9.53984 8.33335 10.0001 8.33335C10.4603 8.33335 10.8334 8.70645 10.8334 9.16669Z" fill="url(#paint2_linear_368_8332)"/>
<path d="M14.1667 9.16669C14.1667 9.62692 13.7937 10 13.3334 10C12.8732 10 12.5001 9.62692 12.5001 9.16669C12.5001 8.70645 12.8732 8.33335 13.3334 8.33335C13.7937 8.33335 14.1667 8.70645 14.1667 9.16669Z" fill="url(#paint3_linear_368_8332)"/>
<defs>
<linearGradient id="paint0_linear_368_8332" x1="1.04175" y1="9.99999" x2="18.9584" y2="9.99999" gradientUnits="userSpaceOnUse">
<stop stop-color="#34C85A"/>
<stop offset="1" stop-color="#7B32FF"/>
</linearGradient>
<linearGradient id="paint1_linear_368_8332" x1="1.04175" y1="9.99999" x2="18.9584" y2="9.99999" gradientUnits="userSpaceOnUse">
<stop stop-color="#34C85A"/>
<stop offset="1" stop-color="#7B32FF"/>
</linearGradient>
<linearGradient id="paint2_linear_368_8332" x1="1.04175" y1="9.99999" x2="18.9584" y2="9.99999" gradientUnits="userSpaceOnUse">
<stop stop-color="#34C85A"/>
<stop offset="1" stop-color="#7B32FF"/>
</linearGradient>
<linearGradient id="paint3_linear_368_8332" x1="1.04175" y1="9.99999" x2="18.9584" y2="9.99999" gradientUnits="userSpaceOnUse">
<stop stop-color="#34C85A"/>
<stop offset="1" stop-color="#7B32FF"/>
</linearGradient>
</defs>
</svg>
