<svg width="20" height="20" viewBox="0 0 20 20" fill="none" xmlns="http://www.w3.org/2000/svg">
<path fill-rule="evenodd" clip-rule="evenodd" d="M10.0001 2.29163C5.74776 2.29163 2.29175 5.76892 2.29175 10.0693C2.29175 13.8387 4.94848 16.9779 8.46857 17.6936C8.89152 17.7796 9.37508 17.4242 9.37508 16.7914V13.0624C7.94868 12.7729 6.87508 11.5118 6.87508 9.99996V9.83329C6.87508 9.13387 7.431 8.56428 8.12508 8.54229V7.49996C8.12508 7.15478 8.4049 6.87496 8.75008 6.87496C9.09526 6.87496 9.37508 7.15478 9.37508 7.49996V8.54163H10.6251V7.49996C10.6251 7.15478 10.9049 6.87496 11.2501 6.87496C11.5953 6.87496 11.8751 7.15478 11.8751 7.49996V8.54229C12.5692 8.56428 13.1251 9.13387 13.1251 9.83329V9.99996C13.1251 11.5118 12.0515 12.7729 10.6251 13.0624V16.7914C10.6251 18.015 9.60122 19.1994 8.21954 18.9185C4.12156 18.0854 1.04175 14.4377 1.04175 10.0693C1.04175 5.08835 5.04766 1.04163 10.0001 1.04163C14.9525 1.04163 18.9584 5.08835 18.9584 10.0693C18.9584 13.6408 16.8999 16.7293 13.9118 18.193C13.6018 18.3448 13.2274 18.2166 13.0756 17.9066C12.9237 17.5967 13.0519 17.2223 13.3619 17.0704C15.9341 15.8104 17.7084 13.1497 17.7084 10.0693C17.7084 5.76892 14.2524 2.29163 10.0001 2.29163ZM8.16675 9.79163C8.14374 9.79163 8.12508 9.81028 8.12508 9.83329V9.99996C8.12508 11.0355 8.96455 11.875 10.0001 11.875C11.0356 11.875 11.8751 11.0355 11.8751 9.99996V9.83329C11.8751 9.81028 11.8564 9.79163 11.8334 9.79163H8.16675Z" fill="url(#paint0_linear_368_8419)"/>
<defs>
<linearGradient id="paint0_linear_368_8419" x1="10.0001" y1="1.04163" x2="10.0001" y2="18.9603" gradientUnits="userSpaceOnUse">
<stop stop-color="#34C85A"/>
<stop offset="1" stop-color="#7B32FF"/>
</linearGradient>
</defs>
</svg>
