<svg width="20" height="20" viewBox="0 0 20 20" fill="none" xmlns="http://www.w3.org/2000/svg">
<path d="M1.66675 9.99998C1.66675 6.85728 1.66675 5.28593 2.64306 4.30962C3.61937 3.33331 5.19072 3.33331 8.33342 3.33331H11.6667C14.8094 3.33331 16.3808 3.33331 17.3571 4.30962C18.3334 5.28593 18.3334 6.85728 18.3334 9.99998C18.3334 13.1427 18.3334 14.714 17.3571 15.6903C16.3808 16.6666 14.8094 16.6666 11.6667 16.6666H8.33341C5.19072 16.6666 3.61937 16.6666 2.64306 15.6903C1.66675 14.714 1.66675 13.1427 1.66675 9.99998Z" stroke="url(#paint0_linear_368_8379)" stroke-width="1.5"/>
<path d="M8.33333 13.75H5" stroke="url(#paint1_linear_368_8379)" stroke-width="1.5" stroke-linecap="round"/>
<path d="M6.66667 11.25H5" stroke="url(#paint2_linear_368_8379)" stroke-width="1.5" stroke-linecap="round"/>
<path d="M1.66675 8.33331L18.3334 8.33331" stroke="url(#paint3_linear_368_8379)" stroke-width="1.5" stroke-linecap="round"/>
<path d="M11.6667 12.5C11.6667 11.7143 11.6667 11.3215 11.9108 11.0774C12.1549 10.8333 12.5477 10.8333 13.3334 10.8333C14.1191 10.8333 14.5119 10.8333 14.756 11.0774C15.0001 11.3215 15.0001 11.7143 15.0001 12.5C15.0001 13.2857 15.0001 13.6785 14.756 13.9226C14.5119 14.1666 14.1191 14.1666 13.3334 14.1666C12.5477 14.1666 12.1549 14.1666 11.9108 13.9226C11.6667 13.6785 11.6667 13.2857 11.6667 12.5Z" stroke="url(#paint4_linear_368_8379)" stroke-width="1.5"/>
<defs>
<linearGradient id="paint0_linear_368_8379" x1="10.0001" y1="3.33331" x2="10.0001" y2="16.6666" gradientUnits="userSpaceOnUse">
<stop stop-color="#34C85A"/>
<stop offset="1" stop-color="#7B32FF"/>
</linearGradient>
<linearGradient id="paint1_linear_368_8379" x1="6.66667" y1="13.75" x2="6.66667" y2="14.75" gradientUnits="userSpaceOnUse">
<stop stop-color="#34C85A"/>
<stop offset="1" stop-color="#7B32FF"/>
</linearGradient>
<linearGradient id="paint2_linear_368_8379" x1="5.83333" y1="11.25" x2="5.83333" y2="12.25" gradientUnits="userSpaceOnUse">
<stop stop-color="#34C85A"/>
<stop offset="1" stop-color="#7B32FF"/>
</linearGradient>
<linearGradient id="paint3_linear_368_8379" x1="10.0001" y1="8.33331" x2="10.0001" y2="9.33331" gradientUnits="userSpaceOnUse">
<stop stop-color="#34C85A"/>
<stop offset="1" stop-color="#7B32FF"/>
</linearGradient>
<linearGradient id="paint4_linear_368_8379" x1="13.3334" y1="10.8333" x2="13.3334" y2="14.1666" gradientUnits="userSpaceOnUse">
<stop stop-color="#34C85A"/>
<stop offset="1" stop-color="#7B32FF"/>
</linearGradient>
</defs>
</svg>
