<svg width="40" height="40" viewBox="0 0 40 40" fill="none" xmlns="http://www.w3.org/2000/svg">
<path d="M26.0078 5.547C24.2422 5.86731 22.6172 6.70325 21.4453 7.88293L20.9063 8.43762H11.5469H2.19532L2.03907 8.64075L1.875 8.85168V19.0704V29.297H1.40625C0.61719 29.297 0.625003 29.2736 0.625003 31.3829C0.625003 32.9454 0.64844 33.2032 0.77344 33.4767C0.953128 33.8751 1.28125 34.2032 1.67969 34.3829C1.97657 34.5236 2.60157 34.5314 16.7266 34.5314H31.4688L31.8828 34.3126C32.2109 34.1486 32.3594 34.0001 32.5625 33.672L32.8125 33.2501V31.3986C32.8125 29.5704 32.8125 29.5392 32.6406 29.422C32.5313 29.3439 32.2969 29.297 32.0156 29.297H31.5625V25.5236V21.7501L31.8672 21.5782L32.1719 21.4064L32.9063 22.3204C34.3672 24.1407 35.5313 25.2189 36.6016 25.7501C37.4531 26.172 38.0469 26.1329 38.6406 25.6095C39.5781 24.7892 39.5938 23.9689 38.7109 22.6173C38.3359 22.0392 36.5938 20.2892 35.7109 19.6095C35.3516 19.3282 34.9844 19.047 34.8984 18.9767C34.75 18.8595 34.7578 18.8439 35.1016 18.1954C36.1953 16.1798 36.4297 13.6642 35.7266 11.4845C34.8281 8.68762 32.3984 6.42981 29.5 5.68762C28.7969 5.51575 26.6719 5.422 26.0078 5.547ZM29.2188 6.88293C30.5703 7.21106 31.9297 8.01575 32.875 9.02356C33.4922 9.67981 33.7734 10.0939 34.1875 10.9689C35.4141 13.5626 35.0313 16.5939 33.1875 18.8751C32.3203 19.9532 30.7578 20.9532 29.3359 21.3361C28.4219 21.5861 26.4844 21.5861 25.5859 21.3439C22.9453 20.6173 20.9453 18.6017 20.2188 15.9376C19.9688 15.0001 19.9688 13.1564 20.2188 12.2267C21.0313 9.25793 23.4375 7.14856 26.5078 6.71887C27.2109 6.61731 28.4531 6.69543 29.2188 6.88293ZM19.6016 10.4064L19.2109 11.2111L12.6953 11.2501L6.17969 11.2892L6 11.4689L5.82032 11.6486V19.4611V27.2814L6.03907 27.4689L6.25782 27.6564L16.7734 27.6407L27.2813 27.6173L27.4297 27.4298C27.5703 27.2579 27.5781 27.1017 27.5781 25.0392V22.8282L28.1094 22.7736C28.5469 22.7267 29.1172 22.6173 30.2188 22.3673L30.3906 22.3282L30.375 25.7892L30.3516 29.2579L16.7422 29.2814L3.125 29.297V19.4532V9.6095H11.5625H19.9922L19.6016 10.4064ZM16.0938 19.4532V26.4064H11.5625H7.03125V19.4532V12.5001H11.5625H16.0938V19.4532ZM18.875 12.672C18.8516 12.7736 18.8047 13.2345 18.7813 13.7111C18.6563 16.0236 19.5078 18.3439 21.0859 20.0157L21.5078 20.4689H20.375C19.3438 20.4689 19.2188 20.4845 19.0313 20.6329C18.7422 20.8595 18.7422 21.3282 19.0391 21.5626C19.2422 21.7189 19.3203 21.7267 21.2422 21.7189L23.2422 21.7032L23.8438 21.9845C24.4922 22.2814 25.2344 22.5157 25.9609 22.6564L26.4063 22.7423V24.3282C26.4063 25.2032 26.3828 26.0314 26.3594 26.1642L26.3125 26.4064H21.7891H17.2656V19.4532V12.5001H18.0938C18.9141 12.5001 18.9219 12.5001 18.875 12.672ZM34.9609 20.5157C36.0078 21.3439 37.4531 22.7736 37.8438 23.3673C38 23.6095 38.1484 23.922 38.1719 24.0704C38.2109 24.297 38.1797 24.3751 37.9375 24.6017C37.6641 24.8673 37.6484 24.8751 37.3594 24.7736C36.5547 24.4767 35.1719 23.2032 33.9297 21.6017L33.2031 20.6642L33.6094 20.2579C33.8359 20.0314 34.0391 19.8439 34.0625 19.8439C34.0859 19.8439 34.4922 20.1486 34.9609 20.5157ZM31.6406 31.7111C31.6406 32.8126 31.625 32.9689 31.4922 33.1329L31.3438 33.3204L16.8594 33.3439C6.625 33.3517 2.32032 33.3361 2.17969 33.2736C1.85157 33.1407 1.79688 32.9064 1.79688 31.6407V30.4689H16.7188H31.6406V31.7111Z" fill="#505050" fill-opacity="0.5"/>
<path d="M29.3359 9.17988C29.2188 9.29706 29.1406 9.46113 29.1406 9.60175C29.1406 9.84394 29.1719 9.883 30.0547 10.508C30.6328 10.9221 31.1094 11.5002 31.4219 12.1643C31.7656 12.8986 31.875 13.3908 31.875 14.2971C31.875 15.1955 31.9531 15.4143 32.2969 15.5002C32.5859 15.5705 32.8672 15.4299 33.0156 15.1408C33.125 14.9299 33.1406 14.7424 33.1016 13.9846C33.0547 12.9455 32.8828 12.3049 32.3984 11.3674C31.8516 10.3049 30.375 8.98456 29.7344 8.98456C29.6172 8.98456 29.4375 9.0705 29.3359 9.17988Z" fill="#505050" fill-opacity="0.5"/>
<path d="M8.9531 14.1486C8.68748 14.3595 8.66404 14.8204 8.91404 15.047C9.07029 15.1876 9.24998 15.1954 11.5547 15.2189C13.9765 15.2423 14.039 15.2345 14.2422 15.0782C14.539 14.8439 14.539 14.3751 14.25 14.1486C14.0469 13.9923 13.9531 13.9845 11.6015 13.9845C9.24998 13.9845 9.15623 13.9923 8.9531 14.1486Z" fill="#505050" fill-opacity="0.5"/>
<path d="M8.95312 17.4298C8.70312 17.6251 8.67969 18.0157 8.89844 18.2892L9.04687 18.4767H11.5859C13.9687 18.4767 14.1328 18.4689 14.2891 18.3282C14.5391 18.1017 14.5156 17.6407 14.25 17.4298C14.0469 17.2736 13.9531 17.2657 11.6016 17.2657C9.25 17.2657 9.15625 17.2736 8.95312 17.4298Z" fill="#505050" fill-opacity="0.5"/>
<path d="M8.9531 20.6329C8.68748 20.8439 8.66404 21.3048 8.91404 21.5314C9.07029 21.672 9.24998 21.6798 11.5547 21.7032C13.9765 21.7267 14.039 21.7189 14.2422 21.5626C14.539 21.3282 14.539 20.8595 14.25 20.6329C14.0469 20.4767 13.9531 20.4689 11.6015 20.4689C9.24998 20.4689 9.15623 20.4767 8.9531 20.6329Z" fill="#505050" fill-opacity="0.5"/>
<path d="M9.14063 23.7267C8.69532 23.8907 8.59376 24.4767 8.95313 24.7579C9.15626 24.9142 9.25001 24.922 11.6016 24.922C13.9531 24.922 14.0469 24.9142 14.25 24.7579C14.5 24.5626 14.5234 24.172 14.3047 23.8986L14.1563 23.7111L11.7031 23.6954C10.3594 23.6876 9.20313 23.7032 9.14063 23.7267Z" fill="#505050" fill-opacity="0.5"/>
<path d="M19.0312 23.8361C18.875 23.9532 18.8281 24.0626 18.8281 24.2814C18.8281 24.9142 18.875 24.922 21.7188 24.922H24.1484L24.3359 24.7267C24.6094 24.4611 24.6016 24.0548 24.3281 23.8361C24.125 23.6798 24.0312 23.672 21.6797 23.672C19.3281 23.672 19.2344 23.6798 19.0312 23.8361Z" fill="#505050" fill-opacity="0.5"/>
<path d="M3.67975 31.4611C3.41413 31.6876 3.39069 32.0392 3.61725 32.3126C3.79694 32.5236 3.85163 32.5392 4.35944 32.5392C5.0235 32.5392 5.23444 32.3986 5.23444 31.9611C5.23444 31.6329 5.17975 31.5392 4.94538 31.4142C4.67194 31.2736 3.87506 31.3048 3.67975 31.4611Z" fill="#505050" fill-opacity="0.5"/>
<path d="M7.22657 31.5236C6.97657 31.7657 6.97657 32.0392 7.21876 32.3204C7.39064 32.5236 7.45314 32.5392 7.96876 32.5392C8.46095 32.5392 8.54689 32.5157 8.6797 32.3517C8.89845 32.0782 8.87501 31.6876 8.62501 31.4923C8.46095 31.3673 8.3047 31.3282 7.91407 31.3282C7.48439 31.3282 7.39064 31.3595 7.22657 31.5236Z" fill="#505050" fill-opacity="0.5"/>
<path d="M10.8282 31.4923C10.5626 31.7032 10.5469 32.0939 10.8126 32.3361C11.1407 32.6486 11.961 32.6486 12.2735 32.3361C12.4844 32.1251 12.461 31.7579 12.2266 31.5236C12.0626 31.3595 11.9688 31.3282 11.5391 31.3282C11.1485 31.3282 10.9922 31.3673 10.8282 31.4923Z" fill="#505050" fill-opacity="0.5"/>
</svg>
