<svg width="40" height="40" viewBox="0 0 40 40" fill="none" xmlns="http://www.w3.org/2000/svg">
<path d="M33.8359 0.835937C33.5234 1.16406 32.4219 3.22656 32.4219 3.5C32.4219 3.84375 32.6562 4.09375 32.9922 4.09375C33.1406 4.09375 33.3203 4.04687 33.3906 3.99219C33.6016 3.8125 34.8438 1.44531 34.8438 1.21875C34.8438 0.953125 34.5234 0.625 34.2578 0.625C34.1328 0.625 33.9609 0.710937 33.8359 0.835937Z" fill="#505050" fill-opacity="0.5"/>
<path d="M25.8671 0.867111C25.0936 1.14055 24.6014 1.68742 24.4843 2.39836L24.4374 2.71867L22.4218 3.93742L20.4139 5.15617L14.4374 5.1718L8.46863 5.19524L8.14051 5.40617C7.96863 5.52336 7.71863 5.78899 7.60144 5.99211L7.38269 6.36711L7.35926 10.4452L7.33582 14.5155L6.77332 14.8515C5.56238 15.5624 3.53113 16.9452 3.20301 17.2734C2.73426 17.7421 2.44519 18.2265 2.25769 18.828C2.10926 19.3202 2.10926 19.5546 2.12488 27.8984L2.14832 36.4609L2.47644 37.1249C3.02332 38.2187 3.98426 38.9843 5.19519 39.2577C5.63269 39.3593 7.43738 39.3749 19.2733 39.3593L32.8514 39.3359L33.3514 39.1562C34.6093 38.703 35.4608 37.8593 35.8749 36.6484L36.0546 36.1327V27.6562V19.1796L35.8749 18.6718C35.6639 18.0702 35.2264 17.4062 34.8905 17.164C34.7577 17.0702 34.0702 16.6484 33.3593 16.2343C32.3983 15.6718 32.0702 15.4452 32.0858 15.3359C32.0858 15.2577 32.1171 15.0155 32.1483 14.8046C32.1952 14.453 32.0311 13.8437 30.3593 8.09367C28.9452 3.20305 28.4764 1.69524 28.3046 1.45305C27.8358 0.765549 26.8202 0.523361 25.8671 0.867111ZM27.2264 2.1093C27.4296 2.33586 30.953 14.5077 30.8905 14.789C30.8358 15.039 30.6483 15.1796 30.1796 15.3202C29.7733 15.4374 29.4374 15.3202 29.3046 15.0234C29.1952 14.789 25.703 2.75774 25.703 2.61711C25.703 2.43742 26.0233 2.1093 26.2733 2.03899C26.7108 1.91399 27.0702 1.93742 27.2264 2.1093ZM26.3202 9.32805C27.1405 12.164 27.8046 14.4843 27.7968 14.4921C27.7655 14.5155 20.0233 14.7577 18.5624 14.789L17.4686 14.8046L16.7499 12.3046C16.3436 10.9296 15.9999 9.69524 15.9764 9.57024L15.9296 9.32805L18.9218 7.52336C20.5702 6.53117 22.5468 5.32805 23.3202 4.8593C24.203 4.32805 24.7421 4.03899 24.7733 4.09367C24.8046 4.14055 25.4999 6.49992 26.3202 9.32805ZM18.2733 6.43742C18.2577 6.45305 17.4843 6.9218 16.5624 7.4843C14.953 8.45305 14.8436 8.50774 13.8436 8.78899C12.6483 9.13274 12.1405 9.42961 11.7421 10.0234C11.1796 10.8593 11.1874 11.4374 11.7655 13.4452C12.2577 15.1484 12.3827 15.4296 12.8202 15.8515C13.5546 16.5702 14.4608 16.7265 15.7421 16.3671C16.1639 16.2421 16.5233 16.1796 16.5546 16.2187C16.5858 16.2577 17.0077 17.6562 17.4921 19.3359C17.9843 21.039 18.453 22.5312 18.5624 22.7187C18.8124 23.1405 19.2811 23.4843 19.828 23.6405C20.8124 23.9296 21.8749 23.4374 22.3436 22.4609C22.6639 21.7968 22.6014 21.3905 21.7733 18.5546C21.0468 16.1171 21.0389 16.0546 21.203 15.9999C21.2889 15.9765 22.9061 15.9062 24.7889 15.8515L28.2108 15.7577L28.4999 16.0312C28.6561 16.1874 28.9061 16.3671 29.0468 16.4374L29.2968 16.5702V18.6952V20.8202L24.2577 24.9843C21.4843 27.2734 19.1718 29.164 19.1171 29.1796C19.0624 29.203 18.3358 28.6484 17.4999 27.9609C16.6639 27.2655 14.3124 25.328 12.2889 23.6484L8.59363 20.6093V13.6796C8.59363 7.53899 8.60926 6.7343 8.71863 6.57805L8.83582 6.40617H13.5702C16.1796 6.40617 18.2889 6.4218 18.2733 6.43742ZM15.4608 12.3515C15.8593 13.7343 16.1561 14.8905 16.1249 14.9218C15.9999 15.039 14.8749 15.3124 14.5155 15.3124C14.1093 15.3124 13.7108 15.0859 13.5077 14.7265C13.3046 14.3749 12.5702 11.8124 12.5702 11.4374C12.5624 10.7421 12.9296 10.3749 13.9218 10.0702C14.3202 9.95305 14.6639 9.85149 14.6874 9.85149C14.7108 9.84367 15.0624 10.9687 15.4608 12.3515ZM7.34363 17.7812C7.34363 19.164 7.32019 19.5312 7.24988 19.4843C7.19519 19.4452 6.64051 18.9999 6.02332 18.4921C5.09363 17.7187 4.92176 17.5468 5.00769 17.4609C5.14832 17.328 7.20301 16.0234 7.28894 16.0155C7.32019 16.0155 7.34363 16.8124 7.34363 17.7812ZM19.7733 16.2265C19.8124 16.3359 20.1874 17.6015 20.5936 19.0312L21.3436 21.6327L21.203 21.9296C21.1014 22.1249 20.953 22.2812 20.7499 22.3749C20.4686 22.5077 20.4139 22.5155 20.1327 22.414C19.9608 22.3515 19.7577 22.2187 19.6796 22.1093C19.5624 21.953 17.8905 16.3984 17.8905 16.1718C17.8905 16.1327 18.2343 16.0859 18.6561 16.0702C19.0702 16.0624 19.4764 16.039 19.5546 16.0312C19.6405 16.0234 19.7186 16.0937 19.7733 16.2265ZM32.1639 16.9921L33.203 17.5937L32.0077 18.5702C31.3593 19.1093 30.7577 19.6093 30.6874 19.6718C30.5546 19.7812 30.5468 19.703 30.5468 18.1484V16.5077L30.8046 16.4296C30.9374 16.3905 31.0702 16.3593 31.0936 16.3671C31.1171 16.3749 31.6014 16.6562 32.1639 16.9921ZM4.82801 19.1171C5.32801 19.5312 6.23426 20.2812 6.83582 20.7812C7.43738 21.2812 9.52332 22.9999 11.4686 24.6015C13.4139 26.2109 14.9921 27.5468 14.9843 27.578C14.9452 27.6718 4.21082 37.3437 4.14051 37.3437C4.03113 37.3437 3.53113 36.5312 3.43738 36.2109C3.37488 35.9843 3.35926 33.5234 3.37488 27.539L3.39832 19.1796L3.62488 18.7655C3.74988 18.5468 3.86707 18.3593 3.88269 18.3593C3.89832 18.3593 4.32019 18.703 4.82801 19.1171ZM34.5233 18.6952C34.6171 18.8827 34.7264 19.2265 34.7655 19.4687C34.8202 19.7499 34.8436 22.7109 34.828 27.9765L34.8046 36.0546L34.5858 36.5155C34.3905 36.9452 34.3671 36.9687 34.2343 36.8515C31.7577 34.6562 23.6014 27.289 23.5936 27.2343C23.578 27.164 34.1952 18.3593 34.2968 18.3593C34.3358 18.3593 34.4374 18.5077 34.5233 18.6952ZM28.1249 33.0859C30.9843 35.6484 33.3124 37.7734 33.3046 37.8046C33.2968 37.828 33.1093 37.914 32.8749 37.9843C32.4921 38.1015 31.4218 38.1171 19.0624 38.1171C11.6952 38.1171 5.60144 38.0859 5.52332 38.0546C5.40613 38.0155 6.37488 37.1015 10.4452 33.4374C13.2264 30.9218 15.6327 28.7577 15.7811 28.6249L16.0546 28.3827L17.2264 29.3515C18.6093 30.5077 18.7889 30.6249 19.1171 30.6249C19.3827 30.6249 19.5311 30.5155 21.5936 28.8046L22.5155 28.039L22.7264 28.2265C22.8358 28.3359 25.2655 30.5155 28.1249 33.0859Z" fill="#505050" fill-opacity="0.5"/>
<path d="M35.3904 5.94531C34.8123 6.11719 34.2029 6.28906 34.0388 6.33594C33.6326 6.44531 33.4373 6.65625 33.4373 6.99219C33.4373 7.34375 33.6638 7.57812 33.9998 7.57812C34.1404 7.57812 34.8201 7.42188 35.5076 7.21875C36.8279 6.84375 37.1091 6.6875 37.1091 6.28906C37.1091 6.07031 36.8279 5.73438 36.6013 5.67969C36.5154 5.65625 35.9685 5.77344 35.3904 5.94531Z" fill="#505050" fill-opacity="0.5"/>
<path d="M34.8047 9.92969C34.5625 10.0703 34.4531 10.2422 34.4531 10.5078C34.4531 10.6406 34.5 10.8047 34.5547 10.875C34.7031 11.0703 37.0781 12.3438 37.2891 12.3438C37.3906 12.3438 37.5703 12.2734 37.6875 12.1797C37.9297 11.9844 37.9609 11.5859 37.7578 11.3438C37.6016 11.1719 35.3906 9.9375 35.125 9.88281C35.0312 9.85938 34.8906 9.88281 34.8047 9.92969Z" fill="#505050" fill-opacity="0.5"/>
</svg>
