<svg width="58" height="59" viewBox="0 0 58 59" fill="none" xmlns="http://www.w3.org/2000/svg">
<path d="M50.6107 7.88943C56.5782 13.857 51.7405 28.37 39.8055 40.3051C27.8704 52.2402 13.3574 57.0779 7.3899 51.1103C1.42236 45.1428 6.26001 30.6298 18.1951 18.6947C30.1302 6.75954 44.6431 1.92187 50.6107 7.88943ZM7.38943 7.88977C1.42188 13.8573 6.25953 28.3703 18.1946 40.3054C30.1297 52.2405 44.6426 57.0782 50.6102 51.1106C56.5777 45.1431 51.7401 30.6301 39.805 18.695C27.8699 6.75987 13.357 1.92221 7.38943 7.88977Z" stroke="#7E7E7E" stroke-width="1.5"/>
<path d="M35.0417 29.5C35.0417 32.8368 32.3368 35.5417 29 35.5417C25.6633 35.5417 22.9584 32.8368 22.9584 29.5C22.9584 26.1633 25.6633 23.4584 29 23.4584C32.3368 23.4584 35.0417 26.1633 35.0417 29.5Z" stroke="#7E7E7E" stroke-width="1.5"/>
</svg>
