<svg width="34" height="34" viewBox="0 0 34 34" fill="none" xmlns="http://www.w3.org/2000/svg">
<g id="simple-icons:applepay" clip-path="url(#clip0_2203_2048)">
<path id="Vector" d="M3.17526 6.21818L2.53807 6.22239C2.32754 6.22941 2.1128 6.24064 1.90368 6.27853C1.58764 6.32848 1.28797 6.45275 1.02933 6.64111C0.770687 6.82948 0.560467 7.07657 0.41596 7.36204C0.317715 7.55573 0.25596 7.75222 0.219469 7.96555C0.180171 8.17327 0.167539 8.3866 0.163329 8.59713L0.157715 8.89046V25.1108C0.157715 25.2081 0.159118 25.305 0.161925 25.4013C0.167539 25.6119 0.180171 25.8266 0.218066 26.0357C0.254557 26.2453 0.32099 26.446 0.417364 26.6378C0.611218 27.0186 0.920776 27.3282 1.30157 27.522C1.49526 27.6203 1.69175 27.6834 1.90508 27.7213C2.1128 27.7592 2.32614 27.7719 2.53666 27.7775L2.82859 27.7817H31.171L31.4616 27.7775C31.6721 27.7719 31.8868 27.7592 32.096 27.7213C32.3051 27.6834 32.5044 27.6217 32.6967 27.5234C33.0788 27.3303 33.3891 27.0199 33.5823 26.6378C33.6805 26.4441 33.7437 26.2477 33.7802 26.0343C33.8181 25.8266 33.8307 25.6133 33.8363 25.4027C33.8391 25.3054 33.8405 25.2081 33.8405 25.1108L33.8419 24.7656V8.88906C33.8419 8.79175 33.8401 8.69491 33.8363 8.59853C33.8336 8.38596 33.8149 8.17389 33.7802 7.96415C33.7122 7.54183 33.5129 7.15166 33.2106 6.84907C32.9082 6.54648 32.5182 6.34685 32.096 6.27853C31.8862 6.24383 31.6742 6.22506 31.4616 6.22239C31.2497 6.21662 31.0377 6.21522 30.8258 6.21818H3.17526ZM3.17526 6.93678H31.164C31.2557 6.93678 31.3479 6.93818 31.4405 6.94099C31.6019 6.9466 31.7914 6.95502 31.9668 6.9859C32.1198 7.01397 32.2475 7.05608 32.3696 7.11783C32.6157 7.24304 32.8157 7.44303 32.9409 7.68906C33.0051 7.81631 33.0496 7.95261 33.0728 8.09327C33.1037 8.2659 33.1121 8.45537 33.1163 8.61818C33.1191 8.70894 33.1205 8.80111 33.1205 8.89467V25.108C33.1205 25.1988 33.1191 25.2905 33.1163 25.3831C33.1121 25.5445 33.1037 25.734 33.0714 25.9094C33.0407 26.1158 32.961 26.3119 32.8389 26.4811C32.7167 26.6503 32.5559 26.7878 32.3696 26.882C32.2433 26.946 32.1079 26.9905 31.9682 27.014C31.7948 27.0398 31.62 27.0548 31.4447 27.0589L31.164 27.0631H2.8328C2.73924 27.0631 2.64754 27.0617 2.55771 27.0589C2.38151 27.0549 2.20572 27.0399 2.0314 27.014C1.87842 26.9859 1.7507 26.9438 1.62719 26.882C1.37991 26.759 1.17975 26.5584 1.05736 26.3108C0.993115 26.1836 0.948628 26.0473 0.925434 25.9066C0.8974 25.7335 0.882387 25.5585 0.880522 25.3831L0.877715 25.1066V8.89327L0.880522 8.61678C0.886136 8.45678 0.894557 8.26871 0.925434 8.09046C0.953504 7.93888 0.99561 7.81116 1.05736 7.68765C1.18282 7.44215 1.38278 7.24268 1.62859 7.11783C1.75541 7.05372 1.89123 7.00923 2.0314 6.9859C2.20684 6.95502 2.39631 6.9452 2.55771 6.94099L2.8328 6.93678H3.17526ZM9.78579 12.1298C9.36473 12.1522 8.84824 12.4091 8.5507 12.7698C8.28263 13.0785 8.04543 13.5838 8.10719 14.0582C8.58157 14.1003 9.05456 13.821 9.3535 13.4715C9.64122 13.1094 9.83772 12.6252 9.78579 12.1312V12.1298ZM12.8833 12.7192V20.4287H14.0791V17.7943H15.7353C17.2482 17.7943 18.3107 16.7571 18.3107 15.2512C18.3107 13.7494 17.2693 12.7178 15.7732 12.7178L12.8833 12.7192ZM14.0791 13.7284H15.4574C16.4946 13.7284 17.0868 14.2841 17.0868 15.2568C17.0868 16.228 16.4946 16.7894 15.4532 16.7894H14.0791V13.7284ZM9.65245 14.1494C9.02087 14.1634 8.48754 14.5424 8.17877 14.5424C7.84894 14.5424 7.34649 14.1719 6.80193 14.1817C6.44782 14.1911 6.1023 14.2928 5.79953 14.4766C5.49676 14.6605 5.24723 14.9202 5.07561 15.2301C4.33596 16.5045 4.88052 18.395 5.60052 19.4336C5.95 19.9473 6.37105 20.5129 6.92543 20.4919C7.44894 20.4722 7.65526 20.1522 8.29105 20.1522C8.92824 20.1522 9.1135 20.4919 9.66649 20.482C10.2419 20.4722 10.6026 19.9684 10.9507 19.4533C11.3521 18.868 11.5163 18.3024 11.5261 18.2729C11.5163 18.2617 10.4174 17.8406 10.4075 16.5761C10.3963 15.5178 11.2707 15.014 11.3114 14.9831C10.8174 14.2533 10.0482 14.1719 9.78157 14.1508L9.65245 14.1494ZM21.1668 14.7066C19.7774 14.7066 18.9128 15.4547 18.8482 16.4694H19.9388C20.0398 15.967 20.4567 15.647 21.1247 15.647C21.8293 15.647 22.2517 16.0203 22.2517 16.6448V17.0785L20.7121 17.1684C19.3774 17.2441 18.6237 17.8477 18.6237 18.8301C18.6237 19.8406 19.3928 20.5241 20.4932 20.5241C21.2314 20.5241 21.9416 20.1298 22.2672 19.5038H22.2939V20.4287H23.3998V16.555C23.3998 15.428 22.5296 14.7066 21.1668 14.7066ZM23.8896 14.8077L25.9191 20.4343C25.9191 20.4385 25.8167 20.7712 25.8167 20.781C25.6412 21.3564 25.3535 21.5824 24.8188 21.5824C24.7219 21.5824 24.5296 21.5824 24.444 21.5613V22.4961C24.5282 22.5115 24.8188 22.5227 24.9142 22.5227C26.0791 22.5227 26.6349 22.0848 27.1149 20.722L29.2202 14.8077H28.0019L26.5816 19.3817H26.5605L25.1388 14.8063L23.8896 14.8077ZM22.2517 17.8799V18.3234C22.2517 19.0547 21.6202 19.6105 20.8146 19.6105C20.1942 19.6105 19.7886 19.2905 19.7886 18.7978C19.7886 18.3178 20.1788 18.0119 20.8679 17.9655L22.2517 17.8799Z" fill="black"/>
</g>
<defs>
<clipPath id="clip0_2203_2048">
<rect width="33.6842" height="33.6842" fill="white" transform="translate(0.157715 0.157837)"/>
</clipPath>
</defs>
</svg>
